<?xml version="1.0" standalone="no"?>
<!DOCTYPE svg PUBLIC "-//W3C//DTD SVG 20010904//EN"
 "http://www.w3.org/TR/2001/REC-SVG-20010904/DTD/svg10.dtd">
<svg version="1.0" xmlns="http://www.w3.org/2000/svg"
 width="900.000000pt" height="900.000000pt" viewBox="0 0 900.000000 900.000000"
 preserveAspectRatio="xMidYMid meet">
<metadata>
Created by potrace 1.14, written by Peter Selinger 2001-2017
</metadata>
<g transform="translate(0.000000,900.000000) scale(0.100000,-0.100000)"
fill="#000000" stroke="none">
<path d="M4436 8853 c-2 -3 -10 -6 -18 -8 -37 -9 -58 -18 -58 -26 0 -5 -6 -9
-13 -9 -8 0 -20 -12 -28 -27 -8 -16 -18 -31 -22 -34 -12 -9 -14 -89 -2 -89 7
0 7 -3 0 -8 -5 -4 -10 -31 -10 -60 0 -28 5 -52 10 -52 6 0 4 -4 -4 -9 -12 -8
-12 -12 -2 -25 8 -9 10 -16 5 -16 -10 0 -10 -113 0 -129 4 -6 4 -11 -1 -11
-12 0 -10 -164 2 -172 7 -5 7 -8 0 -8 -6 0 -9 -41 -8 -107 5 -284 4 -270 32
-313 14 -22 31 -40 38 -40 7 0 13 -5 13 -11 0 -5 4 -8 9 -4 5 3 12 1 16 -5 4
-6 10 -8 15 -5 5 3 11 1 14 -4 9 -13 110 -4 151 14 34 15 98 87 85 95 -9 6 -9
9 1 13 10 4 10 6 2 6 -9 1 -10 8 -2 28 7 20 7 29 -1 31 -8 3 -7 8 1 19 8 9 9
17 3 21 -11 9 -15 42 -4 42 9 0 3 46 -7 63 -3 6 -1 7 5 3 14 -9 15 -5 3 27 -6
14 -7 28 -3 31 11 12 10 36 -1 36 -8 0 -8 3 -2 8 14 10 16 45 2 54 -7 4 -8 8
-2 8 6 0 10 20 9 48 -1 26 3 53 8 60 8 9 7 11 -6 6 -14 -5 -15 -3 -6 21 13 33
13 38 -1 29 -8 -5 -8 -1 0 14 7 14 8 23 1 27 -6 4 -7 11 -4 17 10 15 11 148 2
148 -5 0 -8 5 -8 11 0 5 3 8 8 6 4 -3 7 10 7 29 0 19 -4 34 -9 34 -5 0 -2 7 5
17 11 13 11 17 2 20 -7 3 -13 9 -13 14 0 6 3 8 8 6 4 -3 7 10 7 29 0 19 -3 34
-7 34 -5 0 -8 5 -8 10 0 17 -43 56 -84 75 -33 16 -120 28 -130 18z"/>
<path d="M7807 7654 c-41 -14 -127 -72 -127 -86 0 -4 -6 -8 -14 -8 -8 0 -16
-3 -18 -7 -1 -5 -28 -28 -58 -53 -67 -55 -109 -90 -129 -110 -9 -8 -38 -33
-65 -55 -28 -22 -59 -49 -71 -60 -11 -11 -38 -33 -58 -50 -127 -104 -280 -250
-292 -280 -20 -48 -9 -111 25 -145 89 -89 228 -88 311 3 9 9 19 17 23 17 4 0
18 12 31 26 14 15 25 24 25 21 0 -3 10 4 23 16 39 38 149 132 165 141 9 5 33
27 54 48 21 21 38 36 38 33 0 -3 8 3 18 13 19 18 141 127 181 161 13 12 28 21
33 21 5 0 6 5 3 10 -3 6 -2 10 4 10 5 0 22 12 38 28 15 15 43 40 61 55 19 15
30 27 27 27 -4 0 -3 6 2 13 13 15 14 107 2 107 -5 0 -9 6 -9 13 0 6 -10 23
-23 37 -51 57 -130 78 -200 54z"/>
<path d="M1003 7631 c-17 -11 -33 -18 -35 -15 -3 2 -18 -20 -33 -48 -30 -54
-34 -100 -12 -127 10 -12 9 -13 -3 -6 -8 4 17 -23 57 -62 40 -39 69 -74 65
-77 -3 -4 1 -4 11 0 12 4 17 1 17 -11 0 -9 4 -14 9 -11 5 3 17 -6 27 -19 10
-14 24 -25 31 -25 7 0 13 -7 13 -15 0 -8 4 -14 8 -12 5 1 21 -10 38 -25 64
-60 98 -88 106 -88 4 0 8 -7 8 -16 0 -8 4 -13 9 -10 5 3 20 -9 35 -26 14 -18
26 -28 26 -23 0 5 10 0 23 -12 59 -58 100 -93 108 -93 4 0 13 -8 18 -18 5 -10
22 -24 37 -32 15 -8 40 -26 55 -40 40 -37 92 -75 97 -72 3 2 8 -2 13 -9 8 -13
139 -21 139 -8 0 4 10 9 23 13 31 8 97 75 90 92 -3 8 -1 14 5 14 9 0 9 41 0
80 -3 14 -124 140 -134 140 -3 0 -18 14 -34 30 -16 17 -34 30 -40 30 -5 0 -10
7 -10 15 0 8 -4 15 -9 15 -6 0 -34 23 -63 50 -29 28 -61 53 -70 56 -10 3 -18
13 -18 21 0 9 -3 14 -6 11 -3 -3 -15 4 -27 16 -12 11 -45 40 -72 63 -28 23
-68 56 -90 75 -22 18 -50 43 -63 56 -12 12 -25 22 -29 22 -5 0 -22 14 -74 63
-10 9 -23 17 -29 17 -5 0 -10 5 -10 10 0 6 -9 10 -19 10 -11 0 -22 4 -25 9 -3
4 -34 9 -68 10 -47 1 -71 -4 -95 -18z"/>
<path d="M4267 7224 c-6 -6 -88 -15 -164 -17 -24 -1 -43 -4 -43 -7 0 -3 -10
-6 -22 -7 -26 0 -105 -12 -128 -18 -8 -2 -31 -7 -50 -10 -19 -3 -50 -10 -67
-15 -18 -4 -33 -6 -33 -4 0 3 -8 0 -19 -5 -10 -6 -33 -13 -52 -17 -45 -8 -63
-12 -66 -14 -2 -2 -7 -4 -13 -5 -5 -1 -12 -4 -15 -5 -3 -1 -8 -3 -12 -4 -14
-2 -97 -28 -143 -45 -25 -9 -48 -15 -52 -13 -5 1 -8 -3 -8 -10 0 -6 -3 -9 -6
-5 -6 6 -99 -32 -222 -89 -40 -19 -77 -34 -82 -34 -4 0 -10 -3 -12 -7 -1 -5
-25 -19 -53 -33 -27 -13 -53 -29 -57 -35 -4 -5 -8 -6 -8 -1 0 4 -15 -2 -32
-16 -18 -13 -45 -30 -60 -37 -16 -8 -28 -18 -28 -23 0 -5 -4 -7 -9 -3 -6 3
-14 -3 -20 -12 -6 -10 -11 -15 -11 -10 0 6 -176 -117 -190 -133 -3 -4 -28 -25
-57 -47 -29 -22 -49 -43 -46 -47 4 -3 1 -6 -5 -6 -6 0 -34 -22 -61 -50 -28
-27 -55 -50 -61 -50 -5 0 -10 -4 -10 -10 0 -8 -35 -49 -127 -147 -13 -13 -23
-28 -23 -33 0 -6 -3 -10 -7 -10 -5 0 -21 -20 -38 -45 -16 -24 -33 -45 -37 -45
-5 0 -8 -7 -8 -15 0 -9 -6 -18 -14 -21 -8 -3 -20 -19 -26 -35 -7 -16 -16 -29
-21 -29 -5 0 -8 -3 -7 -7 1 -5 -10 -27 -25 -51 -35 -54 -131 -245 -148 -294
-7 -21 -16 -38 -19 -38 -4 0 -7 -6 -8 -12 -1 -13 -9 -48 -12 -58 -1 -3 -2 -8
-1 -12 0 -5 -3 -8 -7 -8 -4 0 -9 -12 -10 -26 -1 -15 -6 -32 -11 -38 -8 -11
-34 -110 -34 -133 0 -7 -4 -13 -7 -13 -4 0 -6 -13 -5 -30 1 -16 -1 -30 -6 -30
-5 0 -8 -3 -7 -7 1 -5 -1 -28 -5 -53 -3 -25 -9 -65 -13 -90 -3 -25 -8 -47 -10
-49 -2 -2 1 -10 7 -18 6 -7 7 -13 2 -13 -5 0 -9 -36 -9 -80 1 -44 -3 -80 -8
-80 -6 0 -5 -5 1 -11 8 -8 8 -20 3 -35 -5 -13 -6 -24 -2 -24 4 0 7 -30 7 -66
-1 -36 2 -67 6 -70 4 -2 6 -16 4 -30 -1 -14 1 -42 6 -62 10 -47 22 -122 23
-144 0 -10 3 -18 6 -18 3 0 7 -8 8 -17 3 -32 7 -48 15 -60 5 -7 6 -13 2 -13
-3 0 1 -16 9 -35 8 -19 13 -35 11 -35 -2 0 4 -20 15 -45 11 -25 20 -47 21 -50
9 -37 13 -45 21 -45 5 0 7 -4 3 -10 -3 -5 6 -32 20 -59 14 -28 25 -57 25 -65
0 -8 3 -16 8 -18 4 -1 23 -34 42 -73 19 -38 38 -71 43 -73 4 -2 7 -10 7 -18 0
-8 5 -14 10 -14 6 0 10 -5 10 -11 0 -14 100 -162 112 -167 4 -2 8 -10 8 -17 0
-8 6 -18 13 -22 8 -4 18 -15 23 -24 16 -29 77 -99 166 -193 49 -50 88 -94 88
-98 0 -5 6 -8 13 -8 6 0 35 -23 64 -50 29 -28 57 -50 63 -50 5 0 10 -4 10 -10
0 -5 7 -10 15 -10 8 0 15 -4 15 -9 0 -5 17 -20 38 -32 20 -13 39 -27 40 -31 2
-5 17 -15 32 -23 21 -11 28 -21 26 -40 -2 -14 0 -25 3 -25 4 0 7 -10 8 -22 2
-72 8 -120 15 -124 4 -3 4 -13 -2 -23 -5 -10 -6 -21 -3 -25 7 -7 15 -74 17
-143 1 -24 3 -43 7 -43 3 0 5 -10 6 -22 2 -66 7 -118 12 -118 3 0 5 -17 5 -37
-1 -21 3 -46 8 -57 7 -13 7 -16 -1 -12 -12 8 -15 -6 -4 -18 4 -4 8 -24 10 -44
3 -53 11 -130 18 -177 3 -22 7 -61 9 -86 1 -25 6 -51 10 -57 4 -7 1 -12 -6
-12 -8 0 -9 -3 -2 -8 5 -4 10 -24 10 -45 -1 -22 2 -41 5 -43 3 -2 7 -18 8 -36
3 -44 9 -93 11 -93 2 0 6 -34 13 -100 7 -68 39 -178 63 -216 36 -57 146 -159
172 -159 5 0 17 -10 28 -22 19 -22 19 -22 0 -8 -18 14 -19 13 -13 -2 3 -10 2
-20 -3 -23 -7 -4 -6 -13 0 -25 7 -13 7 -21 0 -25 -6 -4 -7 -13 -1 -24 6 -10 6
-23 1 -31 -5 -8 -5 -19 0 -25 5 -6 10 -34 11 -63 2 -29 5 -52 9 -52 3 0 6 -10
7 -23 3 -33 25 -97 35 -97 4 0 8 -6 8 -14 0 -18 51 -96 62 -96 4 0 8 -7 8 -16
0 -8 5 -12 10 -9 6 3 13 -1 16 -9 3 -9 12 -16 19 -16 7 0 15 -7 19 -15 3 -8 9
-14 13 -13 4 0 26 -7 49 -18 l40 -19 1 -60 c1 -33 4 -68 8 -77 4 -9 4 -22 0
-28 -3 -5 -1 -10 4 -10 6 0 11 -8 11 -18 0 -22 22 -72 33 -72 4 0 7 -6 7 -13
0 -18 85 -108 94 -100 3 3 6 2 6 -4 0 -13 110 -68 155 -78 17 -4 77 -10 135
-12 155 -7 1160 -7 1195 0 17 3 43 9 59 12 16 3 42 13 57 21 16 8 29 11 29 7
0 -5 4 -3 8 2 4 6 31 26 59 45 29 19 53 39 53 43 0 4 11 20 25 35 27 29 66
105 71 137 7 50 16 100 19 104 2 1 0 14 -5 27 -7 17 -6 24 2 24 9 0 9 3 0 12
-7 7 -12 17 -12 22 0 6 5 4 10 -4 8 -13 14 -13 44 4 54 29 130 96 162 143 16
24 33 43 38 43 4 0 6 7 2 15 -3 8 -1 15 4 15 5 0 17 26 26 58 21 70 24 86 24
139 0 23 5 45 10 48 8 5 7 11 -1 21 -9 11 -9 17 0 28 7 8 8 17 3 20 -5 3 -9
26 -10 51 -2 34 1 45 13 45 34 0 195 164 195 200 0 5 4 10 10 10 5 0 9 3 9 8
-1 4 4 23 12 42 7 19 12 38 11 43 -1 4 2 7 8 7 6 0 8 17 6 39 -2 22 -1 43 2
46 6 6 7 14 14 97 1 27 7 48 12 48 5 0 3 7 -4 15 -7 8 -8 15 -3 15 5 0 9 20 8
45 0 25 2 45 6 45 4 0 7 12 6 28 0 29 10 124 19 182 3 19 6 56 7 82 1 27 4 48
7 48 3 0 6 19 7 43 1 36 5 71 18 182 1 11 3 20 5 20 1 0 3 23 5 50 3 49 10
128 21 215 3 25 7 54 8 66 2 11 6 26 10 32 4 7 2 12 -4 12 -6 0 -8 5 -4 11 6
10 9 36 16 127 1 6 5 12 9 12 4 0 14 6 21 13 7 7 51 42 98 78 150 116 296 255
395 374 28 33 57 65 65 72 8 7 11 13 7 13 -4 0 4 12 18 28 14 15 28 35 31 45
3 9 10 15 15 11 5 -3 9 -2 8 3 -3 17 14 52 27 57 8 3 14 11 14 18 0 7 11 25
24 40 14 14 22 28 19 31 -3 4 2 13 11 22 9 9 14 21 11 26 -4 5 -2 9 2 9 10 0
73 121 73 139 0 6 5 11 12 11 6 0 8 3 5 6 -3 4 -1 16 5 28 7 11 13 23 13 26 1
3 6 16 12 30 6 14 11 27 11 30 0 5 20 61 38 105 4 11 9 25 9 30 1 6 5 17 8 25
13 34 26 94 21 102 -3 4 -1 8 5 8 5 0 8 11 6 25 -1 14 1 25 5 25 7 0 18 60 26
140 1 14 3 25 4 25 1 0 3 11 5 25 8 69 8 97 0 109 -5 9 -4 12 3 7 8 -5 10 37
7 156 -7 211 -9 248 -15 248 -4 0 -6 10 -7 23 -1 27 -11 88 -24 142 -12 48
-20 87 -23 100 -1 6 -4 15 -7 20 -3 6 -12 33 -19 60 -7 28 -17 54 -21 59 -5 6
-9 20 -9 31 0 12 -3 24 -6 28 -3 3 -21 39 -38 79 -57 130 -61 138 -68 138 -5
0 -8 9 -8 20 0 11 -4 20 -10 20 -5 0 -10 7 -10 15 0 8 -5 15 -10 15 -6 0 -9 4
-8 9 2 5 -3 18 -9 28 -7 10 -36 54 -64 98 -28 44 -55 82 -58 85 -4 3 -18 21
-31 40 -13 19 -29 40 -35 46 -5 6 -30 35 -55 64 -91 109 -226 237 -360 340
-25 19 -47 37 -50 40 -3 3 -12 10 -21 15 -37 23 -134 90 -139 96 -3 3 -21 14
-40 24 -19 10 -37 21 -40 24 -3 3 -35 22 -72 41 -38 19 -68 38 -68 42 0 5 -6
8 -13 8 -6 0 -50 19 -97 41 -47 23 -91 42 -97 42 -7 0 -13 3 -13 7 0 4 -25 15
-55 25 -30 9 -55 21 -55 26 0 4 -6 6 -14 3 -8 -3 -17 0 -21 5 -3 6 -10 9 -15
6 -5 -3 -11 -1 -15 5 -3 5 -16 10 -29 10 -12 0 -26 3 -30 7 -3 4 -12 8 -19 10
-7 1 -66 18 -132 37 -66 19 -133 37 -150 40 -16 3 -76 14 -133 24 -56 11 -105
20 -107 20 -3 1 -6 2 -7 3 -2 0 -20 2 -40 4 -20 1 -41 6 -47 10 -6 3 -11 0
-11 -7 0 -8 -3 -9 -8 -3 -4 6 -31 10 -59 10 -29 0 -53 2 -53 6 0 9 -374 8
-385 -1 -6 -5 -17 -5 -25 0 -18 11 -25 12 -33 4z m128 -328 c11 1 28 5 38 9 9
4 17 3 17 -2 0 -6 18 -7 45 -3 24 4 50 3 57 -1 6 -4 19 -4 29 1 9 5 19 7 22 4
3 -4 39 -8 79 -11 91 -5 163 -11 163 -13 0 -3 27 -7 82 -14 28 -3 57 -8 65
-10 7 -3 27 -7 43 -10 32 -5 46 -8 115 -26 25 -6 52 -12 60 -13 8 -2 49 -13
90 -27 41 -13 78 -23 83 -22 4 1 7 -3 7 -9 0 -6 7 -9 15 -6 8 4 17 2 20 -3 4
-6 15 -10 26 -10 10 0 19 -4 19 -8 0 -5 23 -15 50 -22 28 -8 56 -20 61 -27 6
-7 15 -10 20 -7 5 3 9 0 9 -5 0 -6 4 -10 8 -8 10 3 146 -65 150 -75 2 -5 10
-8 18 -8 8 0 20 -5 27 -10 24 -21 138 -90 147 -90 6 0 10 -3 10 -8 0 -4 18
-18 40 -32 22 -14 40 -28 40 -32 0 -5 6 -8 13 -8 7 0 19 -9 27 -20 8 -11 18
-20 22 -20 4 0 20 -10 35 -22 46 -39 266 -261 300 -303 57 -72 133 -178 133
-186 0 -4 6 -14 13 -21 13 -15 31 -45 59 -98 10 -19 22 -42 27 -50 16 -27 44
-95 44 -107 0 -7 7 -15 14 -17 8 -3 12 -10 8 -16 -3 -5 1 -21 10 -34 9 -14 14
-30 10 -36 -3 -5 -2 -10 3 -10 5 0 13 -15 17 -32 4 -18 9 -35 10 -38 1 -3 7
-25 14 -50 6 -25 15 -52 18 -60 3 -8 7 -28 8 -45 2 -16 4 -31 5 -32 1 -2 3 -6
4 -10 1 -5 5 -14 9 -20 5 -8 4 -13 -3 -13 -6 0 -8 -5 -3 -12 4 -7 9 -20 10
-28 16 -93 24 -388 10 -397 -4 -3 -3 -11 4 -19 8 -10 8 -14 0 -14 -6 0 -10 -8
-9 -17 3 -40 -3 -94 -9 -90 -5 3 -8 -16 -8 -41 0 -26 -3 -52 -7 -57 -4 -6 -10
-26 -13 -44 -3 -19 -10 -42 -16 -52 -5 -11 -7 -19 -4 -19 3 0 -4 -22 -14 -49
-10 -28 -16 -52 -13 -55 3 -4 0 -6 -6 -6 -7 0 -11 -3 -11 -7 1 -5 0 -11 -1
-15 -1 -5 -3 -11 -5 -15 -14 -52 -18 -63 -26 -63 -5 0 -8 -3 -7 -7 3 -10 -25
-75 -56 -131 -14 -23 -22 -42 -20 -42 2 0 -12 -22 -31 -50 -19 -27 -35 -53
-35 -56 0 -7 -67 -100 -92 -128 -10 -10 -15 -23 -12 -28 3 -4 -1 -8 -8 -8 -8
0 -22 -14 -31 -30 -10 -17 -22 -30 -28 -30 -5 0 -9 -4 -9 -9 0 -12 -124 -136
-209 -211 -35 -30 -69 -60 -75 -66 -6 -5 -19 -13 -28 -17 -10 -3 -18 -11 -18
-17 0 -5 -4 -10 -10 -10 -5 0 -33 -18 -62 -40 -29 -22 -57 -40 -61 -40 -11 0
-52 -42 -66 -68 -6 -11 -12 -32 -13 -46 -1 -15 -5 -26 -9 -26 -4 0 -6 -11 -4
-25 1 -14 -1 -25 -4 -25 -4 0 -7 -10 -7 -22 -1 -13 -4 -50 -9 -83 -4 -33 -9
-71 -10 -85 -2 -14 -4 -25 -5 -25 -1 0 -3 -25 -5 -57 -1 -31 -6 -61 -9 -67 -4
-6 -1 -11 6 -11 9 0 9 -3 2 -8 -6 -4 -12 -29 -13 -55 0 -27 -6 -58 -12 -69 -8
-15 -8 -19 0 -14 8 5 8 0 2 -16 -4 -13 -8 -40 -7 -61 1 -20 -1 -37 -4 -37 -3
0 -6 -24 -7 -52 -1 -29 -4 -62 -6 -74 -3 -11 -6 -38 -8 -60 -1 -21 -7 -44 -11
-51 -5 -6 -5 -14 1 -17 7 -4 7 -15 1 -31 -5 -13 -7 -33 -5 -44 2 -12 -1 -21
-8 -21 -7 0 -6 -4 3 -10 8 -5 10 -10 4 -10 -5 0 -11 -21 -12 -48 -1 -26 -3
-60 -6 -77 -11 -79 -19 -142 -20 -160 -1 -11 -5 -26 -9 -32 -5 -8 -3 -13 5
-13 8 0 9 -3 3 -8 -6 -4 -10 -14 -10 -22 1 -8 -3 -21 -8 -28 -6 -8 -5 -12 4
-12 10 0 10 -3 1 -12 -7 -7 -12 -22 -12 -35 0 -13 -6 -33 -12 -45 -19 -33 -65
-78 -72 -71 -3 4 -6 2 -6 -4 0 -15 -48 -33 -101 -38 -24 -2 -102 -4 -174 -5
-71 -1 -134 -5 -141 -11 -8 -7 -11 1 -11 28 0 21 5 41 11 45 7 5 8 8 1 8 -11
0 -14 47 -4 65 3 6 5 40 4 78 0 37 3 67 8 67 5 0 4 6 -2 14 -7 8 -8 17 -3 20
5 3 8 25 7 48 -1 24 3 49 9 57 8 10 8 15 -2 18 -6 3 -9 10 -5 16 4 7 8 28 10
47 1 19 5 51 8 70 3 19 7 61 8 93 1 31 4 57 7 57 3 0 6 24 7 53 1 28 5 68 8
87 2 19 7 58 10 87 2 29 7 67 11 85 4 18 8 49 9 68 2 19 4 35 5 35 1 0 3 18 6
40 2 22 7 54 10 70 3 17 6 42 7 58 0 15 5 27 11 27 6 0 4 5 -4 10 -9 6 -10 10
-3 10 6 0 10 9 8 20 -2 11 2 20 8 20 7 0 6 4 -3 10 -11 7 -11 10 -2 10 7 0 11
3 8 8 -2 4 0 30 5 57 5 28 12 61 14 75 11 59 15 73 20 78 2 3 0 11 -6 19 -9 9
-8 13 0 13 6 0 11 13 11 28 0 16 3 32 6 35 4 4 8 19 10 34 1 16 5 39 9 53 3
14 8 36 11 50 3 14 11 45 18 70 7 25 14 47 14 50 1 14 15 66 20 75 4 5 7 16 8
25 3 18 9 40 17 60 3 8 18 51 33 95 15 44 32 83 37 86 5 4 7 11 4 15 -3 5 1
14 8 21 10 10 14 7 19 -13 4 -14 4 -30 0 -36 -4 -7 -3 -8 4 -4 7 4 12 1 12 -6
0 -14 69 -65 82 -60 4 1 8 -2 8 -6 0 -14 104 -19 173 -9 43 6 143 60 170 91
10 12 26 30 36 41 45 53 66 167 41 230 -6 17 -11 32 -11 35 1 3 -7 14 -16 25
-9 11 -16 21 -14 23 12 14 -132 132 -161 132 -8 0 -18 3 -22 7 -3 4 -12 8 -19
10 -7 1 -30 7 -52 13 -74 19 -212 6 -300 -29 -16 -7 -31 -11 -31 -9 -1 2 -11
-6 -23 -16 -12 -11 -21 -16 -21 -13 0 4 -8 -1 -18 -10 -10 -10 -38 -35 -61
-55 -23 -21 -40 -38 -36 -38 3 0 -4 -10 -15 -22 -11 -13 -33 -43 -47 -68 -14
-25 -31 -48 -36 -51 -5 -4 -7 -15 -3 -25 4 -10 4 -15 0 -11 -6 6 -32 -33 -38
-58 -2 -5 -6 -17 -9 -25 -29 -68 -37 -93 -37 -105 0 -3 -7 -19 -15 -35 -9 -17
-13 -30 -10 -30 4 0 3 -6 -2 -12 -4 -7 -8 -15 -9 -18 0 -3 -6 -25 -13 -50 -7
-25 -13 -47 -14 -50 0 -3 -8 -32 -18 -64 -10 -33 -16 -63 -13 -67 2 -4 0 -10
-5 -14 -6 -3 -8 -12 -4 -20 3 -8 1 -15 -5 -15 -5 0 -8 -10 -8 -22 1 -13 0 -27
-3 -33 -7 -14 -12 -36 -14 -62 0 -13 -4 -23 -8 -23 -4 0 -6 -8 -4 -17 1 -10 0
-22 -3 -28 -4 -5 -7 -19 -8 -30 -1 -19 -9 -66 -19 -112 -3 -13 -7 -31 -9 -40
-2 -10 -7 -43 -11 -73 -4 -30 -9 -64 -11 -75 -2 -11 -6 -36 -8 -55 -3 -19 -8
-51 -12 -70 -3 -19 -8 -55 -9 -80 -2 -25 -5 -46 -6 -47 -1 -2 -3 -12 -4 -23
-1 -11 -3 -21 -5 -22 -1 -2 -3 -19 -4 -38 -2 -19 -6 -64 -11 -100 -4 -36 -9
-76 -11 -90 -1 -14 -6 -54 -10 -90 -4 -36 -8 -76 -8 -90 -1 -14 -5 -28 -11
-32 -6 -5 -5 -8 3 -8 7 0 10 -5 7 -10 -4 -6 -8 -32 -11 -58 -2 -26 -6 -72 -9
-102 -9 -95 -16 -184 -17 -217 0 -18 -5 -33 -12 -33 -7 0 -7 -3 -1 -8 11 -8
15 -52 5 -52 -4 0 -7 -21 -7 -47 0 -27 -1 -68 -3 -93 l-3 -45 -271 2 c-149 1
-276 2 -282 2 -6 1 -11 7 -11 14 -2 31 -3 63 -2 77 0 8 -2 28 -6 43 -3 15 -7
57 -8 92 -1 36 -5 65 -9 65 -4 0 -3 11 2 25 5 14 6 25 1 25 -4 0 -8 15 -8 32
0 32 -7 124 -19 243 -4 33 -7 79 -8 102 0 24 -4 43 -7 43 -3 0 -5 15 -4 33 0
17 -3 52 -6 77 -16 105 -27 197 -33 280 -2 25 -7 52 -10 61 -4 9 -6 20 -5 25
1 5 0 11 -1 14 -1 3 -3 19 -6 35 -6 49 -10 64 -17 71 -4 4 -2 13 4 21 6 7 8
13 3 13 -8 0 -15 42 -18 108 -1 12 -4 22 -7 22 -3 0 -6 6 -6 13 -1 13 -12 88
-19 122 -2 11 -6 34 -9 50 -4 17 -7 40 -8 53 -1 12 -5 22 -9 22 -4 0 -5 9 -3
20 2 11 -1 20 -6 20 -6 0 -8 4 -5 8 3 5 -4 46 -16 93 -11 46 -22 93 -24 104
-1 11 -3 22 -4 25 -1 3 -2 8 -1 13 0 4 -3 7 -7 7 -5 0 -9 6 -10 13 -3 41 -12
76 -34 127 -6 14 -12 34 -13 45 -3 28 -38 119 -47 123 -5 2 -8 9 -8 17 0 18
-49 123 -61 130 -5 4 -7 11 -4 16 4 5 2 9 -3 9 -6 0 -13 11 -16 25 -4 14 -11
25 -16 25 -6 0 -10 6 -10 13 0 13 -100 123 -100 110 0 -5 -4 -3 -8 3 -12 19
-104 74 -113 68 -5 -3 -9 0 -9 5 0 6 -3 10 -7 9 -5 -1 -28 4 -53 12 -46 14
-210 23 -210 11 0 -3 -12 -7 -27 -7 -48 -3 -73 -8 -73 -16 0 -4 -7 -5 -15 -2
-8 4 -15 2 -15 -4 0 -5 -12 -13 -26 -16 -22 -6 -157 -126 -141 -126 3 0 -2
-19 -13 -42 -10 -23 -16 -46 -14 -50 3 -4 0 -8 -6 -8 -8 0 -8 -6 0 -20 8 -15
8 -20 -2 -20 -9 0 -9 -3 2 -10 9 -6 10 -10 3 -10 -13 0 1 -50 32 -115 16 -35
85 -106 118 -123 67 -35 98 -42 172 -43 73 -2 105 3 105 14 0 4 3 6 8 3 7 -4
77 43 80 54 13 53 40 90 43 60 1 -5 2 -15 3 -20 0 -6 6 -14 11 -18 6 -4 10
-11 10 -17 1 -23 29 -94 35 -90 4 2 5 -7 2 -20 -2 -14 0 -25 5 -25 5 0 10 -6
11 -12 0 -15 6 -38 21 -85 5 -17 7 -34 3 -37 -3 -3 -1 -6 5 -6 5 0 10 -6 10
-12 1 -14 6 -36 24 -108 6 -25 12 -54 14 -65 1 -11 3 -20 5 -20 1 0 3 -9 5
-20 5 -31 15 -78 21 -105 10 -40 15 -72 18 -110 2 -20 7 -45 13 -55 5 -11 8
-30 7 -42 0 -13 2 -23 5 -23 4 0 8 -17 9 -37 3 -41 9 -88 12 -88 3 0 9 -41 12
-77 2 -21 5 -38 8 -38 3 0 5 -10 6 -22 1 -32 14 -145 20 -171 3 -12 7 -40 9
-62 2 -22 7 -65 11 -95 4 -30 8 -74 8 -97 1 -24 4 -43 7 -43 3 0 7 -21 8 -47
3 -57 8 -108 11 -108 1 0 3 -8 5 -17 2 -10 -1 -18 -7 -18 -6 0 -6 -6 2 -15 6
-8 10 -18 7 -22 -2 -4 -1 -32 2 -60 5 -33 3 -57 -3 -64 -8 -9 -7 -10 2 -5 9 6
12 -1 12 -26 -1 -18 1 -69 5 -113 3 -44 8 -110 9 -146 2 -37 7 -72 11 -78 3
-6 3 -11 -2 -10 -4 1 -12 0 -18 -1 -14 -2 -269 0 -331 4 -82 4 -164 66 -164
121 0 8 -3 15 -7 15 -5 0 -9 17 -10 38 -2 20 -6 53 -9 72 -3 19 -7 44 -7 55
-1 11 -6 23 -12 27 -6 5 -5 8 3 8 7 0 11 4 8 9 -3 5 -8 26 -11 46 -2 21 -7 54
-10 74 -3 20 -7 63 -10 96 -2 33 -7 83 -11 110 -3 28 -7 71 -8 97 0 27 -3 48
-6 48 -3 0 -7 26 -8 58 -1 32 -5 69 -8 82 -3 14 -6 36 -7 50 -1 14 -6 31 -10
37 -5 8 -3 13 3 13 6 0 8 5 5 11 -4 5 -8 29 -10 52 -2 23 -4 42 -5 42 -1 0 -4
34 -6 75 -3 41 -7 82 -11 90 -3 8 -7 38 -9 65 -8 97 -13 140 -14 140 -2 0 -7
28 -15 82 -3 24 -11 45 -17 49 -7 4 -5 9 3 15 11 7 11 9 1 9 -7 0 -11 4 -7 9
6 10 -81 101 -96 101 -14 0 -98 60 -189 135 -122 100 -315 297 -302 309 3 3 1
6 -5 6 -6 0 -23 19 -39 43 -16 23 -37 51 -46 61 -10 11 -18 26 -18 33 0 7 -4
13 -8 13 -5 0 -17 18 -28 40 -10 22 -23 40 -27 40 -5 0 -5 5 -2 10 3 6 3 10
-2 10 -4 0 -19 24 -33 53 -14 28 -29 55 -34 58 -5 4 -5 12 -2 18 4 6 3 11 -2
11 -9 0 -62 126 -62 148 0 6 -4 12 -10 12 -5 0 -9 3 -8 8 2 7 -19 86 -29 112
-3 8 -5 21 -4 28 1 6 -4 12 -11 12 -9 0 -9 3 2 10 12 8 12 10 1 10 -8 0 -11 3
-8 6 3 4 2 14 -3 24 -5 9 -10 34 -12 54 -1 20 -6 36 -11 36 -5 0 -7 7 -3 15 3
8 1 26 -4 40 -6 17 -6 25 1 25 6 0 7 6 2 13 -12 19 -13 32 -18 185 -3 104 -1
141 7 136 7 -5 8 -3 3 7 -12 18 -7 80 8 98 10 12 9 13 -2 7 -10 -7 -11 -3 -5
15 4 13 7 31 7 39 0 8 4 21 10 28 6 8 6 12 -2 12 -8 0 -9 6 -2 18 8 15 22 79
24 110 0 6 4 12 9 12 4 0 7 3 6 8 -3 10 12 72 25 102 5 14 11 30 12 35 2 6 4
17 6 25 2 8 8 18 12 21 5 3 10 15 12 25 2 10 4 20 5 22 2 1 3 5 4 10 4 13 60
127 66 132 3 3 14 24 25 47 11 24 24 43 28 43 5 0 5 5 2 10 -3 6 -1 10 4 10 6
0 11 7 11 15 0 9 7 18 15 21 8 4 12 10 9 15 -3 5 0 9 6 9 6 0 9 4 6 9 -4 5 -3
11 1 13 5 1 33 37 64 78 31 42 72 92 91 113 20 20 34 37 31 37 -2 0 30 34 72
75 41 41 80 75 86 75 5 0 8 4 4 9 -3 5 4 12 15 16 11 3 20 10 20 14 0 4 36 34
80 67 44 32 80 62 80 67 0 4 5 7 12 7 6 0 27 12 47 27 20 15 38 28 41 27 3 0
28 14 57 33 29 18 56 33 62 33 5 0 11 4 13 8 2 4 30 21 63 37 33 16 63 34 67
40 4 5 8 7 8 2 0 -4 15 0 33 10 17 9 34 18 37 18 3 1 23 9 45 19 22 10 45 19
50 20 6 1 17 6 25 11 8 5 22 10 30 10 8 1 31 8 50 16 19 9 64 23 100 33 36 9
72 20 80 23 8 3 22 7 30 9 8 1 45 9 81 17 36 8 81 18 100 21 19 3 48 8 64 12
53 10 196 25 267 28 20 0 40 5 44 9 4 4 10 4 13 -1 3 -4 15 -7 26 -6z m752
-5591 c0 -8 -4 -12 -9 -9 -5 3 -6 10 -3 15 9 13 12 11 12 -6z m-1144 -180 c15
1 27 -2 27 -8 0 -5 7 -4 15 3 9 7 18 10 22 7 3 -4 13 -1 21 6 13 10 14 9 8 -1
-6 -9 0 -11 23 -7 19 3 31 1 31 -5 0 -6 5 -8 12 -4 18 11 48 12 48 2 0 -5 6
-6 13 -1 17 11 41 10 50 -2 4 -7 10 -7 15 0 6 10 30 11 57 5 6 -1 12 -1 15 0
13 5 50 6 50 1 0 -8 58 -6 67 2 3 4 12 2 19 -4 8 -7 14 -7 19 1 5 8 10 8 20 0
10 -8 15 -8 20 0 5 8 11 8 21 -1 8 -6 14 -7 14 -2 0 5 9 9 20 9 11 0 20 -4 20
-8 0 -5 8 -4 18 1 10 5 24 6 32 1 7 -4 24 -4 37 1 16 6 23 5 23 -4 0 -7 3 -8
8 -2 8 12 32 13 50 2 6 -5 12 -5 12 0 0 10 79 15 100 6 14 -6 54 -5 96 1 10 2
22 -2 26 -8 5 -7 8 -7 8 3 0 11 3 11 15 1 8 -7 15 -8 15 -3 0 5 9 9 20 9 11 0
20 -4 20 -8 0 -4 11 -4 23 1 13 5 30 6 37 1 7 -4 25 -4 40 0 15 4 33 4 41 -1
8 -4 19 -3 26 3 7 6 13 6 13 1 0 -5 9 -9 20 -9 11 0 20 4 20 9 0 4 6 5 12 1
16 -10 48 -13 48 -4 0 4 6 7 13 7 6 0 12 -11 12 -24 0 -12 -4 -23 -8 -23 -4 0
-3 -9 3 -20 8 -15 8 -20 -1 -20 -8 0 -8 -4 1 -15 10 -12 10 -15 0 -15 -7 0
-10 -6 -7 -13 7 -18 -21 -74 -50 -103 -13 -13 -23 -21 -23 -18 0 2 -12 -2 -27
-9 -16 -8 -36 -13 -45 -12 -10 2 -20 -1 -23 -5 -3 -5 -15 -7 -28 -4 -17 4
-1371 5 -1462 2 -35 -2 -90 11 -93 21 -2 5 -10 7 -18 4 -8 -3 -14 0 -14 6 0 6
-6 11 -12 11 -12 0 -50 53 -54 75 -1 6 -3 12 -4 15 -6 12 -6 141 0 145 3 2 12
0 19 -5 8 -4 26 -4 41 0 15 4 33 4 41 -1 8 -4 19 -3 26 3 7 6 13 6 13 1 0 -5
9 -9 20 -9 11 0 20 4 20 9 0 4 6 5 13 0 17 -10 37 -13 37 -4 0 9 37 8 46 -2 4
-3 15 -2 25 4 13 6 19 6 19 -1 0 -5 5 -10 11 -10 5 0 8 4 5 8 -3 5 11 7 30 6
22 -2 32 1 28 7 -4 8 0 8 12 2 11 -6 31 -9 47 -8z m1103 -630 c2 -28 -2 -35
-24 -44 -47 -20 -86 -21 -640 -22 l-543 -1 -24 22 c-14 13 -22 27 -19 31 3 5
1 9 -4 9 -6 0 -8 8 -5 18 4 18 33 18 624 18 369 -1 619 3 619 8 0 25 15 -10
16 -39z"/>
</g>
</svg>
