<?xml version="1.0" standalone="no"?>
<!DOCTYPE svg PUBLIC "-//W3C//DTD SVG 20010904//EN"
 "http://www.w3.org/TR/2001/REC-SVG-20010904/DTD/svg10.dtd">
<svg version="1.0" xmlns="http://www.w3.org/2000/svg"
 width="900.000000pt" height="900.000000pt" viewBox="0 0 900.000000 900.000000"
 preserveAspectRatio="xMidYMid meet">
<metadata>
Created by potrace 1.14, written by Peter Selinger 2001-2017
</metadata>
<g transform="translate(0.000000,900.000000) scale(0.100000,-0.100000)"
fill="#000000" stroke="none">
<path d="M4442 8832 l-27 -29 1 -219 c1 -238 7 -267 53 -280 40 -11 64 -5 91
24 l25 27 0 223 c-1 206 -3 224 -21 249 -31 41 -86 43 -122 5z"/>
<path d="M3690 8763 c-14 -9 -27 -18 -29 -20 -9 -6 -9 -113 -1 -113 4 0 10
-17 13 -37 3 -30 32 -173 52 -263 12 -57 20 -72 44 -88 60 -42 138 5 127 77
-4 31 -34 177 -52 260 -3 14 -7 35 -9 46 -2 11 -4 22 -6 25 -1 3 -3 10 -4 15
-8 50 -20 78 -42 95 -31 24 -60 25 -93 3z"/>
<path d="M5219 8761 c-25 -19 -39 -56 -53 -136 -3 -16 -19 -92 -36 -167 -16
-76 -29 -149 -28 -163 5 -60 96 -92 139 -49 16 16 43 112 64 229 8 42 15 71
25 110 6 22 12 64 14 93 3 44 0 58 -16 74 -30 30 -78 34 -109 9z"/>
<path d="M2951 8523 c-38 -32 -41 -71 -11 -138 36 -78 70 -155 106 -235 51
-116 57 -124 103 -134 38 -8 45 -7 67 16 29 28 34 73 14 116 -31 68 -90 200
-125 282 -15 36 -39 75 -52 88 -29 26 -73 29 -102 5z"/>
<path d="M5944 8516 c-11 -11 -33 -50 -49 -86 -34 -79 -67 -154 -106 -238 -37
-79 -40 -100 -23 -134 27 -53 88 -64 126 -23 13 14 37 55 53 92 15 38 41 94
56 126 15 31 26 57 25 57 -2 0 12 30 29 67 27 54 31 72 24 97 -18 63 -92 86
-135 42z"/>
<path d="M2304 8150 c-28 -11 -54 -48 -54 -78 0 -22 16 -61 29 -72 15 -12 141
-190 141 -200 0 -5 4 -10 9 -10 4 0 21 -19 36 -42 43 -65 70 -85 110 -80 41 5
64 28 71 74 5 31 -5 48 -124 213 -148 203 -163 216 -218 195z"/>
<path d="M6640 8149 c0 -6 -4 -8 -9 -5 -5 3 -24 -15 -42 -40 -19 -25 -42 -54
-51 -65 -10 -10 -18 -21 -18 -25 0 -3 -32 -48 -72 -101 -85 -115 -100 -143
-95 -180 4 -29 56 -74 80 -69 45 10 60 22 107 91 19 28 37 52 40 55 8 7 132
180 153 212 23 37 21 72 -5 102 -23 25 -88 43 -88 25z"/>
<path d="M4640 7617 c-1 -23 -1 -1276 -1 -2783 l-1 -2742 -104 1 -104 0 -1
2291 c0 1260 -2 2300 -4 2311 -1 11 -6 43 -9 70 -4 28 -10 59 -14 70 -3 11 -7
25 -8 30 -6 31 -40 118 -65 169 -39 78 -118 196 -131 196 -6 0 -9 3 -6 6 15
14 -172 171 -262 220 -19 10 -43 25 -52 33 -10 8 -18 11 -18 7 0 -3 -18 3 -40
14 -21 11 -44 20 -49 20 -5 0 -22 5 -38 11 -15 7 -35 13 -43 14 -8 1 -31 6
-50 10 -19 4 -48 8 -65 10 -16 1 -32 4 -35 5 -14 6 -176 5 -185 -2 -6 -4 -20
-6 -30 -4 -11 2 -36 -1 -55 -7 -19 -5 -44 -10 -55 -12 -11 -1 -49 -12 -84 -24
-202 -69 -387 -213 -498 -386 -18 -27 -36 -54 -41 -60 -4 -5 -10 -14 -12 -20
-2 -5 -13 -32 -25 -60 -26 -57 -37 -86 -40 -100 -2 -5 -8 -30 -15 -55 -7 -25
-14 -56 -16 -70 -13 -75 -11 -74 -87 -98 -117 -38 -232 -122 -334 -244 -23
-28 -93 -155 -93 -169 0 -4 -5 -20 -12 -36 -12 -31 -16 -46 -23 -83 -2 -14 -4
-25 -5 -25 -1 0 -3 -18 -4 -41 -2 -22 -6 -46 -10 -52 -4 -7 -4 -12 1 -12 4 0
8 -24 9 -53 0 -62 8 -113 22 -148 6 -15 9 -29 6 -31 -2 -3 7 -28 21 -56 l25
-51 -49 -64 c-47 -63 -114 -188 -114 -214 0 -7 -3 -13 -7 -13 -3 0 -14 -41
-24 -90 -47 -232 -4 -452 127 -645 36 -52 161 -171 214 -204 l51 -31 -15 -53
c-8 -28 -17 -59 -20 -67 -7 -20 -6 -136 1 -180 12 -70 28 -130 37 -136 5 -3 9
-14 9 -25 0 -10 5 -19 11 -19 6 0 9 -7 5 -15 -3 -8 -2 -15 2 -15 5 0 18 -18
31 -40 12 -22 32 -46 44 -55 12 -8 18 -15 15 -15 -11 0 36 -44 89 -83 78 -57
175 -96 277 -111 52 -8 52 -9 60 -66 4 -27 10 -50 14 -50 4 0 8 -9 9 -21 1
-11 11 -39 22 -63 12 -23 21 -48 21 -54 0 -7 5 -12 10 -12 6 0 10 -5 10 -11 0
-41 197 -262 260 -292 8 -4 29 -16 45 -27 17 -11 42 -25 58 -31 l27 -11 0
-522 c0 -457 2 -523 15 -524 20 -3 29 -3 105 -3 36 1 72 1 80 0 8 0 44 0 80 0
36 1 72 1 80 0 8 0 44 0 80 0 36 1 73 1 83 1 9 0 42 0 72 0 131 0 180 0 198
-1 6 0 36 2 65 3 29 2 55 1 58 -3 2 -4 18 -3 36 1 17 5 35 7 40 4 12 -8 78
-11 78 -4 0 7 78 5 86 -2 3 -3 19 -2 36 3 17 4 38 5 47 0 9 -5 25 -7 36 -5 41
8 116 10 121 3 2 -4 14 -5 27 -3 39 10 88 11 93 3 3 -5 15 -5 27 -1 28 9 89 8
105 -2 6 -4 17 -4 24 0 16 10 78 12 84 2 3 -4 15 -4 27 0 27 9 88 8 104 -1 6
-4 14 -4 17 1 6 9 47 8 64 -2 7 -4 17 -4 24 0 16 10 78 12 84 2 3 -4 15 -4 27
0 28 9 89 8 105 -2 6 -4 17 -4 24 0 16 10 78 12 84 2 3 -4 15 -4 27 0 28 9 89
8 105 -2 6 -4 17 -4 24 0 16 10 78 12 84 3 2 -4 16 -4 32 0 25 7 27 11 28 64
1 31 4 63 7 72 4 8 3 15 -1 15 -10 0 -7 184 3 200 5 8 4 15 -1 17 -10 3 -10
235 1 252 3 6 3 11 -2 11 -10 0 -9 182 2 199 4 7 4 16 -1 20 -12 8 -11 152 1
171 6 8 44 32 85 54 90 46 224 135 340 224 86 66 309 283 367 357 18 22 52 66
77 97 25 31 46 61 46 67 0 6 5 11 10 11 6 0 10 6 10 14 0 8 3 16 8 18 10 4 62
85 62 97 0 5 4 11 9 13 4 2 25 34 45 72 20 38 40 74 45 80 5 6 10 14 10 19 0
4 12 32 26 62 86 188 163 431 189 595 3 19 8 46 10 60 5 25 10 69 22 170 12
102 8 428 -6 445 -7 8 -8 15 -3 15 6 0 7 18 3 48 -16 100 -23 148 -24 165 0 9
-3 17 -6 17 -4 0 -6 10 -5 23 1 12 -2 30 -7 39 -4 10 -10 30 -12 45 -15 101
-140 452 -178 501 -6 6 -7 12 -2 12 5 0 5 4 -1 8 -5 4 -19 25 -30 47 -31 59
-79 148 -88 160 -4 5 -29 43 -56 84 -27 40 -58 83 -69 96 -11 12 -23 29 -28
37 -39 66 -287 321 -404 415 -93 75 -253 183 -270 183 -7 0 -11 3 -7 6 3 4
-20 20 -51 36 -82 44 -251 128 -256 128 -3 0 -17 5 -33 12 -15 6 -30 12 -33
13 -3 1 -18 7 -35 14 -34 14 -172 61 -195 66 -8 2 -51 12 -95 23 -72 18 -143
33 -170 36 -63 8 -144 19 -160 22 -11 2 -93 6 -182 9 l-163 5 0 -43z"/>
<path d="M1722 7630 c-31 -13 -53 -66 -41 -99 10 -25 31 -46 163 -165 43 -38
92 -82 109 -98 74 -67 110 -77 152 -44 18 15 28 33 30 59 4 43 -2 51 -149 182
-43 39 -99 89 -125 113 -64 60 -92 70 -139 52z"/>
<path d="M7179 7613 c-19 -16 -48 -41 -65 -58 -18 -16 -62 -57 -99 -90 -149
-132 -160 -147 -150 -195 8 -36 51 -69 85 -63 28 4 52 19 96 60 17 15 68 62
114 103 172 156 172 156 158 208 -7 25 -18 37 -43 48 -48 19 -59 18 -96 -13z"/>
<path d="M1267 7002 c-34 -21 -49 -63 -36 -100 9 -27 19 -35 83 -72 17 -9 91
-52 163 -94 124 -73 193 -104 193 -88 0 4 10 12 22 17 46 20 54 92 16 128 -13
12 -25 19 -92 56 -17 10 -87 50 -154 89 -67 40 -133 74 -145 76 -13 2 -35 -3
-50 -12z"/>
<path d="M7676 7012 c-10 -2 -52 -24 -93 -48 -41 -24 -79 -44 -84 -44 -5 0 -9
-5 -9 -11 0 -5 -4 -7 -10 -4 -5 3 -10 2 -10 -3 0 -5 -27 -22 -60 -38 -33 -16
-60 -32 -60 -36 0 -5 -6 -8 -13 -8 -18 0 -67 -48 -68 -68 -4 -57 30 -102 78
-102 27 0 132 54 145 74 4 6 8 8 8 4 0 -3 37 16 83 42 45 27 103 61 128 75 26
15 51 37 57 49 14 32 3 78 -25 100 -25 21 -38 25 -67 18z"/>
<path d="M955 6298 c-48 -28 -60 -91 -22 -126 18 -17 205 -88 252 -96 6 -1 15
-4 20 -8 6 -3 27 -9 48 -13 20 -4 39 -11 42 -15 9 -14 80 -21 107 -11 25 9 56
53 53 76 -3 29 -19 56 -38 67 -31 16 -407 138 -426 138 -9 0 -25 -6 -36 -12z"/>
<path d="M7918 6285 c-36 -13 -69 -21 -72 -17 -3 3 -6 -1 -6 -8 0 -7 -3 -11
-6 -8 -5 5 -97 -23 -223 -69 -75 -27 -89 -108 -26 -149 26 -17 40 -16 130 9
51 15 288 93 317 105 72 30 79 114 11 150 -30 16 -47 14 -125 -13z"/>
<path d="M797 5541 c-36 -18 -53 -56 -43 -94 9 -36 41 -55 101 -62 28 -3 66
-7 85 -10 19 -2 62 -7 95 -10 33 -4 76 -8 95 -10 89 -11 132 -6 156 16 47 44
15 136 -48 141 -13 0 -36 2 -53 3 -16 1 -37 5 -45 8 -8 3 -53 8 -100 12 -47 3
-114 9 -148 14 -50 6 -71 4 -95 -8z"/>
<path d="M8149 5556 c-2 -2 -37 -7 -78 -11 -41 -4 -82 -8 -90 -10 -9 -1 -52
-6 -96 -10 -107 -10 -129 -13 -135 -15 -3 -1 -8 -2 -12 -1 -13 1 -48 -52 -48
-73 0 -38 11 -62 33 -75 20 -13 95 -16 146 -6 13 2 56 7 95 10 39 4 87 9 106
11 37 5 97 12 117 13 7 1 24 12 38 26 31 32 33 76 3 108 -21 23 -69 43 -79 33z"/>
<path d="M1187 4824 c-3 -3 -27 -7 -53 -10 -26 -2 -68 -6 -93 -9 -25 -3 -73
-8 -106 -11 -104 -9 -123 -12 -144 -23 -26 -14 -41 -42 -41 -76 0 -36 52 -85
83 -79 26 5 156 16 209 18 21 0 38 3 38 6 0 3 15 6 33 6 53 1 138 14 158 24
43 24 52 87 17 125 -21 22 -88 41 -101 29z"/>
<path d="M7721 4803 c-24 -19 -31 -32 -31 -59 0 -36 35 -83 62 -85 14 -1 39
-3 128 -14 108 -12 136 -15 195 -20 33 -3 69 -7 80 -9 11 -2 32 3 47 10 52 27
63 84 26 126 -26 29 -50 33 -283 54 -33 3 -71 7 -85 10 -74 15 -107 12 -139
-13z"/>
<path d="M1248 4116 c-54 -18 -98 -31 -98 -29 0 2 -13 -3 -30 -12 -16 -8 -31
-15 -32 -14 -6 4 -114 -34 -140 -49 -36 -21 -46 -68 -24 -111 9 -17 22 -31 29
-32 6 0 22 -2 33 -5 17 -3 168 41 312 91 7 2 14 5 17 5 3 0 21 6 40 14 20 9
36 15 38 15 14 -1 41 19 51 40 19 35 9 77 -22 101 -33 26 -59 24 -174 -14z"/>
<path d="M7571 4127 c-25 -28 -31 -88 -10 -110 16 -15 75 -48 84 -46 3 0 36
-9 73 -21 37 -12 72 -23 77 -24 6 -1 15 -5 21 -8 6 -4 22 -9 36 -12 15 -2 36
-9 47 -16 12 -6 21 -8 21 -4 0 3 6 2 13 -4 20 -17 85 -22 112 -10 45 21 57 95
20 131 -12 13 -122 55 -160 63 -5 1 -66 20 -134 43 -143 47 -169 50 -200 18z"/>
<path d="M1634 3521 c-3 -3 -9 -6 -13 -6 -6 0 -143 -78 -303 -173 -72 -43 -96
-70 -92 -99 1 -7 2 -21 3 -32 3 -44 94 -70 130 -37 10 9 21 16 25 16 4 0 57
29 117 65 61 36 113 65 115 65 11 0 91 57 104 75 31 42 8 104 -45 121 -19 6
-37 8 -41 5z"/>
<path d="M7291 3496 c-41 -44 -27 -113 29 -136 16 -7 30 -16 30 -21 0 -5 4 -9
9 -9 6 0 60 -29 122 -65 61 -36 114 -65 117 -65 3 0 13 -6 21 -14 55 -47 131
-33 151 28 10 30 9 40 -5 64 -10 15 -25 32 -36 38 -10 5 -58 32 -106 61 -49
28 -110 63 -138 79 -27 15 -52 30 -55 33 -10 13 -62 31 -89 31 -16 0 -37 -10
-50 -24z"/>
<path d="M2028 2961 c-9 -3 -51 -37 -94 -76 -42 -38 -102 -92 -133 -120 -118
-106 -121 -110 -121 -146 0 -37 25 -83 41 -74 5 4 9 1 9 -5 0 -5 14 -9 31 -8
23 2 56 24 123 83 238 208 254 225 251 268 -2 42 -9 53 -47 73 -22 12 -28 12
-22 2 6 -10 5 -11 -7 -2 -8 6 -21 9 -31 5z"/>
<path d="M6920 2962 c-8 -3 -25 -16 -38 -30 -33 -35 -25 -86 20 -124 18 -16
56 -50 84 -76 90 -84 194 -175 214 -189 24 -17 73 -11 96 11 25 25 33 67 19
96 -7 14 -41 50 -76 80 -35 30 -74 66 -89 78 -163 151 -189 168 -230 154z"/>
<path d="M6410 2498 c-32 -12 -59 -47 -60 -76 0 -22 16 -61 29 -72 3 -3 35
-45 71 -95 35 -49 69 -95 75 -102 5 -6 28 -37 49 -67 47 -66 91 -86 133 -59
47 31 57 83 23 126 -11 14 -20 30 -20 35 0 6 -3 12 -8 14 -4 2 -45 55 -92 118
-46 63 -86 117 -89 120 -3 3 -11 14 -17 25 -15 28 -63 45 -94 33z"/>
<path d="M2518 2488 c-8 -7 -35 -40 -59 -73 -24 -33 -47 -64 -52 -70 -86 -113
-157 -224 -157 -247 0 -32 37 -78 65 -80 59 -4 88 25 234 237 19 28 37 52 40
55 20 17 53 76 58 103 7 48 -27 87 -76 87 -20 0 -44 -6 -53 -12z"/>
<path d="M3546 1730 c-3 -6 3 -816 6 -842 1 -10 6 -18 10 -18 4 0 8 -8 8 -17
0 -40 110 -193 139 -193 5 0 14 -7 21 -15 14 -17 110 -61 123 -57 4 1 7 -1 7
-6 0 -4 17 -7 38 -7 20 0 41 -2 47 -4 5 -3 31 -4 57 -3 26 0 49 -3 49 -9 11
-77 63 -186 122 -250 48 -53 152 -129 177 -129 9 0 20 -3 24 -7 3 -4 12 -8 19
-10 7 -1 32 -7 57 -13 52 -13 196 -8 225 8 11 5 22 10 25 10 15 -2 62 19 110
49 117 74 193 184 224 324 5 24 9 25 73 28 88 3 111 6 119 14 4 4 14 7 22 7
20 0 122 52 122 62 0 4 5 8 10 8 20 0 90 85 120 145 17 33 33 78 36 100 8 48
11 824 4 826 -16 5 -1992 4 -1994 -1z m1854 -235 l0 -100 -852 0 -853 0 -3 97
-3 97 33 3 c18 2 403 3 856 3 l822 0 0 -100z m0 -343 l0 -98 -852 0 -853 1 -3
98 -3 97 856 0 855 0 0 -98z m-10 -246 c0 -18 -52 -94 -80 -117 -50 -42 -50
-42 -100 -60 -39 -14 -122 -16 -675 -15 l-630 1 -57 28 c-61 30 -120 90 -137
138 l-10 29 845 0 c464 0 844 -2 844 -4z"/>
</g>
</svg>
